<svg xmlns="http://www.w3.org/2000/svg" version="1.1" xmlns:xlink="http://www.w3.org/1999/xlink" xmlns:svgjs="http://svgjs.com/svgjs" width="1000" height="1000"><rect width="1000" height="1000" rx="200" ry="200" fill="#ffffff"></rect><g transform="matrix(0.78125,0,0,0.78125,100,100)"><svg xmlns="http://www.w3.org/2000/svg" version="1.1" xmlns:xlink="http://www.w3.org/1999/xlink" xmlns:svgjs="http://svgjs.com/svgjs" width="1024" height="1024"><svg height="1024" width="1024" xmlns="http://www.w3.org/2000/svg"><path d="M950.154 192H73.846C33.127 192 0 225.12699999999995 0 265.846v492.308C0 798.875 33.127 832 73.846 832h876.308c40.721 0 73.846-33.125 73.846-73.846V265.846C1024 225.12699999999995 990.875 192 950.154 192zM576 703.875L448 704V512l-96 123.077L256 512v192H128V320h128l96 128 96-128 128-0.125V703.875zM767.091 735.875L608 512h96V320h128v192h96L767.091 735.875z"></path></svg></svg></g></svg>